<mxfile host="app.diagrams.net" modified="2023-09-22T03:23:29.031Z" agent="Mozilla/5.0 (Windows NT 10.0; Win64; x64) AppleWebKit/537.36 (KHTML, like Gecko) Chrome/116.0.0.0 Safari/537.36" version="21.8.0" etag="erDq92aSvoouhGuNA6Dz" type="github">
  <diagram name="第 1 页" id="YSLpdJqZq6GB91zK7I6R">
    <mxGraphModel>
      <root>
        <mxCell id="0" />
        <mxCell id="1" parent="0" />
      </root>
    </mxGraphModel>
  </diagram>
</mxfile>
